<mxfile host="app.diagrams.net" modified="2023-11-27T00:26:39.671Z" agent="Mozilla/5.0 (Windows NT 10.0; Win64; x64) AppleWebKit/537.36 (KHTML, like Gecko) Chrome/119.0.0.0 Safari/537.36" etag="iC6vVuhQjAQoK84TdDnb" version="22.1.4" type="device">
  <diagram name="Page-1" id="9f46799a-70d6-7492-0946-bef42562c5a5">
    <mxGraphModel dx="2534" dy="766" grid="1" gridSize="10" guides="1" tooltips="1" connect="1" arrows="1" fold="1" page="1" pageScale="1" pageWidth="1100" pageHeight="850" background="none" math="0" shadow="0">
      <root>
        <mxCell id="0" />
        <mxCell id="1" parent="0" />
        <mxCell id="9bia1SHxIzR9saYs0n-D-1" value="HealthData" style="swimlane;fontStyle=0;childLayout=stackLayout;horizontal=1;startSize=30;horizontalStack=0;resizeParent=1;resizeParentMax=0;resizeLast=0;collapsible=1;marginBottom=0;whiteSpace=wrap;html=1;" parent="1" vertex="1">
          <mxGeometry x="500" y="306" width="190" height="116" as="geometry" />
        </mxCell>
        <mxCell id="Y9ItXvn1lvH6FB86PRbh-8" value="+ Date date" style="text;strokeColor=none;fillColor=none;align=left;verticalAlign=middle;spacingLeft=4;spacingRight=4;overflow=hidden;points=[[0,0.5],[1,0.5]];portConstraint=eastwest;rotatable=0;whiteSpace=wrap;html=1;" parent="9bia1SHxIzR9saYs0n-D-1" vertex="1">
          <mxGeometry y="30" width="190" height="30" as="geometry" />
        </mxCell>
        <mxCell id="Y9ItXvn1lvH6FB86PRbh-9" value="+ HealthDataText string" style="text;strokeColor=none;fillColor=none;align=left;verticalAlign=middle;spacingLeft=4;spacingRight=4;overflow=hidden;points=[[0,0.5],[1,0.5]];portConstraint=eastwest;rotatable=0;whiteSpace=wrap;html=1;" parent="9bia1SHxIzR9saYs0n-D-1" vertex="1">
          <mxGeometry y="60" width="190" height="30" as="geometry" />
        </mxCell>
        <mxCell id="Y9ItXvn1lvH6FB86PRbh-18" value="+sendInfo()" style="text;strokeColor=default;fillColor=none;align=left;verticalAlign=top;spacingLeft=4;spacingRight=4;overflow=hidden;rotatable=0;points=[[0,0.5],[1,0.5]];portConstraint=eastwest;whiteSpace=wrap;html=1;strokeWidth=2;" parent="9bia1SHxIzR9saYs0n-D-1" vertex="1">
          <mxGeometry y="90" width="190" height="26" as="geometry" />
        </mxCell>
        <mxCell id="9bia1SHxIzR9saYs0n-D-5" value="Consumer" style="swimlane;fontStyle=0;childLayout=stackLayout;horizontal=1;startSize=30;horizontalStack=0;resizeParent=1;resizeParentMax=0;resizeLast=0;collapsible=1;marginBottom=0;whiteSpace=wrap;html=1;" parent="1" vertex="1">
          <mxGeometry x="80" y="250" width="230" height="228" as="geometry" />
        </mxCell>
        <mxCell id="9bia1SHxIzR9saYs0n-D-8" value="+ Login string " style="text;strokeColor=none;fillColor=none;align=left;verticalAlign=middle;spacingLeft=4;spacingRight=4;overflow=hidden;points=[[0,0.5],[1,0.5]];portConstraint=eastwest;rotatable=0;whiteSpace=wrap;html=1;" parent="9bia1SHxIzR9saYs0n-D-5" vertex="1">
          <mxGeometry y="30" width="230" height="30" as="geometry" />
        </mxCell>
        <mxCell id="Y9ItXvn1lvH6FB86PRbh-3" value="+ Password string" style="text;strokeColor=none;fillColor=none;align=left;verticalAlign=middle;spacingLeft=4;spacingRight=4;overflow=hidden;points=[[0,0.5],[1,0.5]];portConstraint=eastwest;rotatable=0;whiteSpace=wrap;html=1;" parent="9bia1SHxIzR9saYs0n-D-5" vertex="1">
          <mxGeometry y="60" width="230" height="60" as="geometry" />
        </mxCell>
        <mxCell id="S9Xea-7UfGWyWSCu4YjZ-2" value="&lt;font style=&quot;vertical-align: inherit;&quot;&gt;&lt;font style=&quot;vertical-align: inherit;&quot;&gt;+&amp;nbsp;&lt;/font&gt;&lt;/font&gt;ArtificialAttribute: ConsumerInformation" style="text;html=1;align=center;verticalAlign=middle;resizable=0;points=[];autosize=1;strokeColor=none;fillColor=none;" vertex="1" parent="9bia1SHxIzR9saYs0n-D-5">
          <mxGeometry y="120" width="230" height="30" as="geometry" />
        </mxCell>
        <mxCell id="Y9ItXvn1lvH6FB86PRbh-16" value="+sendQuestion()" style="text;strokeColor=default;fillColor=none;align=left;verticalAlign=top;spacingLeft=4;spacingRight=4;overflow=hidden;rotatable=0;points=[[0,0.5],[1,0.5]];portConstraint=eastwest;whiteSpace=wrap;html=1;strokeWidth=2;" parent="9bia1SHxIzR9saYs0n-D-5" vertex="1">
          <mxGeometry y="150" width="230" height="26" as="geometry" />
        </mxCell>
        <mxCell id="Y9ItXvn1lvH6FB86PRbh-19" value="+readInfo()" style="text;strokeColor=default;fillColor=none;align=left;verticalAlign=top;spacingLeft=4;spacingRight=4;overflow=hidden;rotatable=0;points=[[0,0.5],[1,0.5]];portConstraint=eastwest;whiteSpace=wrap;html=1;strokeWidth=2;" parent="9bia1SHxIzR9saYs0n-D-5" vertex="1">
          <mxGeometry y="176" width="230" height="26" as="geometry" />
        </mxCell>
        <mxCell id="Y9ItXvn1lvH6FB86PRbh-17" value="+getAnswer()" style="text;strokeColor=default;fillColor=none;align=left;verticalAlign=top;spacingLeft=4;spacingRight=4;overflow=hidden;rotatable=0;points=[[0,0.5],[1,0.5]];portConstraint=eastwest;whiteSpace=wrap;html=1;strokeWidth=2;" parent="9bia1SHxIzR9saYs0n-D-5" vertex="1">
          <mxGeometry y="202" width="230" height="26" as="geometry" />
        </mxCell>
        <mxCell id="9bia1SHxIzR9saYs0n-D-9" value="&lt;font style=&quot;vertical-align: inherit;&quot;&gt;&lt;font style=&quot;vertical-align: inherit;&quot;&gt;Consumer information&lt;/font&gt;&lt;/font&gt;" style="swimlane;fontStyle=0;childLayout=stackLayout;horizontal=1;startSize=30;horizontalStack=0;resizeParent=1;resizeParentMax=0;resizeLast=0;collapsible=1;marginBottom=0;whiteSpace=wrap;html=1;" parent="1" vertex="1">
          <mxGeometry x="92.5" y="60" width="205" height="120" as="geometry" />
        </mxCell>
        <mxCell id="9bia1SHxIzR9saYs0n-D-12" value="+ Name string" style="text;strokeColor=none;fillColor=none;align=left;verticalAlign=middle;spacingLeft=4;spacingRight=4;overflow=hidden;points=[[0,0.5],[1,0.5]];portConstraint=eastwest;rotatable=0;whiteSpace=wrap;html=1;" parent="9bia1SHxIzR9saYs0n-D-9" vertex="1">
          <mxGeometry y="30" width="205" height="30" as="geometry" />
        </mxCell>
        <mxCell id="9bia1SHxIzR9saYs0n-D-24" value="+ Email string" style="text;strokeColor=none;fillColor=none;align=left;verticalAlign=middle;spacingLeft=4;spacingRight=4;overflow=hidden;points=[[0,0.5],[1,0.5]];portConstraint=eastwest;rotatable=0;whiteSpace=wrap;html=1;" parent="9bia1SHxIzR9saYs0n-D-9" vertex="1">
          <mxGeometry y="60" width="205" height="30" as="geometry" />
        </mxCell>
        <mxCell id="Y9ItXvn1lvH6FB86PRbh-1" value="+ Age int" style="text;strokeColor=none;fillColor=none;align=left;verticalAlign=middle;spacingLeft=4;spacingRight=4;overflow=hidden;points=[[0,0.5],[1,0.5]];portConstraint=eastwest;rotatable=0;whiteSpace=wrap;html=1;" parent="9bia1SHxIzR9saYs0n-D-9" vertex="1">
          <mxGeometry y="90" width="205" height="30" as="geometry" />
        </mxCell>
        <mxCell id="9bia1SHxIzR9saYs0n-D-43" style="edgeStyle=orthogonalEdgeStyle;rounded=0;orthogonalLoop=1;jettySize=auto;html=1;exitX=1;exitY=0.5;exitDx=0;exitDy=0;entryX=0.5;entryY=1;entryDx=0;entryDy=0;" parent="1" source="9bia1SHxIzR9saYs0n-D-14" target="9bia1SHxIzR9saYs0n-D-28" edge="1">
          <mxGeometry relative="1" as="geometry" />
        </mxCell>
        <mxCell id="9bia1SHxIzR9saYs0n-D-14" value="HealthCenterEmployee" style="swimlane;fontStyle=0;childLayout=stackLayout;horizontal=1;startSize=30;horizontalStack=0;resizeParent=1;resizeParentMax=0;resizeLast=0;collapsible=1;marginBottom=0;whiteSpace=wrap;html=1;" parent="1" vertex="1">
          <mxGeometry x="-140" y="740" width="160" height="172" as="geometry" />
        </mxCell>
        <mxCell id="9bia1SHxIzR9saYs0n-D-17" value="+ Name string" style="text;strokeColor=none;fillColor=none;align=left;verticalAlign=middle;spacingLeft=4;spacingRight=4;overflow=hidden;points=[[0,0.5],[1,0.5]];portConstraint=eastwest;rotatable=0;whiteSpace=wrap;html=1;" parent="9bia1SHxIzR9saYs0n-D-14" vertex="1">
          <mxGeometry y="30" width="160" height="30" as="geometry" />
        </mxCell>
        <mxCell id="Y9ItXvn1lvH6FB86PRbh-5" value="+ Age int" style="text;strokeColor=none;fillColor=none;align=left;verticalAlign=middle;spacingLeft=4;spacingRight=4;overflow=hidden;points=[[0,0.5],[1,0.5]];portConstraint=eastwest;rotatable=0;whiteSpace=wrap;html=1;" parent="9bia1SHxIzR9saYs0n-D-14" vertex="1">
          <mxGeometry y="60" width="160" height="30" as="geometry" />
        </mxCell>
        <mxCell id="9bia1SHxIzR9saYs0n-D-33" value="+ Position string" style="text;strokeColor=none;fillColor=none;align=left;verticalAlign=middle;spacingLeft=4;spacingRight=4;overflow=hidden;points=[[0,0.5],[1,0.5]];portConstraint=eastwest;rotatable=0;whiteSpace=wrap;html=1;" parent="9bia1SHxIzR9saYs0n-D-14" vertex="1">
          <mxGeometry y="90" width="160" height="30" as="geometry" />
        </mxCell>
        <mxCell id="Y9ItXvn1lvH6FB86PRbh-14" value="+getQuestion()" style="text;strokeColor=default;fillColor=none;align=left;verticalAlign=top;spacingLeft=4;spacingRight=4;overflow=hidden;rotatable=0;points=[[0,0.5],[1,0.5]];portConstraint=eastwest;whiteSpace=wrap;html=1;strokeWidth=2;" parent="9bia1SHxIzR9saYs0n-D-14" vertex="1">
          <mxGeometry y="120" width="160" height="26" as="geometry" />
        </mxCell>
        <mxCell id="Y9ItXvn1lvH6FB86PRbh-15" value="+sendAnswer()" style="text;strokeColor=default;fillColor=none;align=left;verticalAlign=top;spacingLeft=4;spacingRight=4;overflow=hidden;rotatable=0;points=[[0,0.5],[1,0.5]];portConstraint=eastwest;whiteSpace=wrap;html=1;strokeWidth=2;" parent="9bia1SHxIzR9saYs0n-D-14" vertex="1">
          <mxGeometry y="146" width="160" height="26" as="geometry" />
        </mxCell>
        <mxCell id="9bia1SHxIzR9saYs0n-D-45" style="edgeStyle=orthogonalEdgeStyle;rounded=0;orthogonalLoop=1;jettySize=auto;html=1;entryX=0.5;entryY=0;entryDx=0;entryDy=0;" parent="1" source="9bia1SHxIzR9saYs0n-D-25" target="9bia1SHxIzR9saYs0n-D-14" edge="1">
          <mxGeometry relative="1" as="geometry" />
        </mxCell>
        <mxCell id="9bia1SHxIzR9saYs0n-D-25" value="Questions about health" style="swimlane;fontStyle=0;childLayout=stackLayout;horizontal=1;startSize=30;horizontalStack=0;resizeParent=1;resizeParentMax=0;resizeLast=0;collapsible=1;marginBottom=0;whiteSpace=wrap;html=1;" parent="1" vertex="1">
          <mxGeometry x="-130" y="450" width="140" height="90" as="geometry" />
        </mxCell>
        <mxCell id="9bia1SHxIzR9saYs0n-D-34" value="+ QuestionText string" style="text;strokeColor=none;fillColor=none;align=left;verticalAlign=middle;spacingLeft=4;spacingRight=4;overflow=hidden;points=[[0,0.5],[1,0.5]];portConstraint=eastwest;rotatable=0;whiteSpace=wrap;html=1;" parent="9bia1SHxIzR9saYs0n-D-25" vertex="1">
          <mxGeometry y="30" width="140" height="30" as="geometry" />
        </mxCell>
        <mxCell id="Y9ItXvn1lvH6FB86PRbh-6" value="+ Date date" style="text;strokeColor=none;fillColor=none;align=left;verticalAlign=middle;spacingLeft=4;spacingRight=4;overflow=hidden;points=[[0,0.5],[1,0.5]];portConstraint=eastwest;rotatable=0;whiteSpace=wrap;html=1;" parent="9bia1SHxIzR9saYs0n-D-25" vertex="1">
          <mxGeometry y="60" width="140" height="30" as="geometry" />
        </mxCell>
        <mxCell id="9bia1SHxIzR9saYs0n-D-28" value="Response to the consumer" style="swimlane;fontStyle=0;childLayout=stackLayout;horizontal=1;startSize=30;horizontalStack=0;resizeParent=1;resizeParentMax=0;resizeLast=0;collapsible=1;marginBottom=0;whiteSpace=wrap;html=1;" parent="1" vertex="1">
          <mxGeometry x="125" y="557" width="140" height="90" as="geometry" />
        </mxCell>
        <mxCell id="9bia1SHxIzR9saYs0n-D-31" value="+ AnswerText string" style="text;strokeColor=none;fillColor=none;align=left;verticalAlign=middle;spacingLeft=4;spacingRight=4;overflow=hidden;points=[[0,0.5],[1,0.5]];portConstraint=eastwest;rotatable=0;whiteSpace=wrap;html=1;" parent="9bia1SHxIzR9saYs0n-D-28" vertex="1">
          <mxGeometry y="30" width="140" height="30" as="geometry" />
        </mxCell>
        <mxCell id="Y9ItXvn1lvH6FB86PRbh-7" value="+ Date date" style="text;strokeColor=none;fillColor=none;align=left;verticalAlign=middle;spacingLeft=4;spacingRight=4;overflow=hidden;points=[[0,0.5],[1,0.5]];portConstraint=eastwest;rotatable=0;whiteSpace=wrap;html=1;" parent="9bia1SHxIzR9saYs0n-D-28" vertex="1">
          <mxGeometry y="60" width="140" height="30" as="geometry" />
        </mxCell>
        <mxCell id="9bia1SHxIzR9saYs0n-D-36" value="" style="endArrow=diamondThin;endFill=0;endSize=24;html=1;rounded=0;entryX=0.5;entryY=0;entryDx=0;entryDy=0;exitX=0.5;exitY=1;exitDx=0;exitDy=0;" parent="1" source="9bia1SHxIzR9saYs0n-D-9" target="9bia1SHxIzR9saYs0n-D-5" edge="1">
          <mxGeometry width="160" relative="1" as="geometry">
            <mxPoint x="270" y="420" as="sourcePoint" />
            <mxPoint x="430" y="420" as="targetPoint" />
          </mxGeometry>
        </mxCell>
        <mxCell id="9bia1SHxIzR9saYs0n-D-37" value="" style="endArrow=classic;html=1;rounded=0;entryX=0.009;entryY=-0.044;entryDx=0;entryDy=0;exitX=1;exitY=0.5;exitDx=0;exitDy=0;entryPerimeter=0;" parent="1" source="9bia1SHxIzR9saYs0n-D-5" target="Y9ItXvn1lvH6FB86PRbh-9" edge="1">
          <mxGeometry width="50" height="50" relative="1" as="geometry">
            <mxPoint x="330" y="450" as="sourcePoint" />
            <mxPoint x="450" y="305" as="targetPoint" />
          </mxGeometry>
        </mxCell>
        <mxCell id="9bia1SHxIzR9saYs0n-D-38" value="&lt;b&gt;Read&lt;br&gt;&lt;/b&gt;" style="text;html=1;align=center;verticalAlign=middle;resizable=0;points=[];autosize=1;strokeColor=none;fillColor=none;" parent="1" vertex="1">
          <mxGeometry x="370" y="306" width="50" height="30" as="geometry" />
        </mxCell>
        <mxCell id="9bia1SHxIzR9saYs0n-D-41" value="" style="html=1;verticalAlign=bottom;endArrow=block;curved=0;rounded=0;entryX=0.5;entryY=0;entryDx=0;entryDy=0;exitX=0;exitY=0.5;exitDx=0;exitDy=0;" parent="1" target="9bia1SHxIzR9saYs0n-D-25" edge="1">
          <mxGeometry width="80" relative="1" as="geometry">
            <mxPoint x="80" y="290" as="sourcePoint" />
            <mxPoint x="390" y="420" as="targetPoint" />
            <Array as="points">
              <mxPoint x="-60" y="290" />
            </Array>
          </mxGeometry>
        </mxCell>
        <mxCell id="9bia1SHxIzR9saYs0n-D-42" value="&lt;b&gt;Send&lt;br&gt;&lt;/b&gt;" style="text;html=1;align=center;verticalAlign=middle;resizable=0;points=[];autosize=1;strokeColor=none;fillColor=none;rotation=0;" parent="1" vertex="1">
          <mxGeometry x="-40" y="350" width="50" height="30" as="geometry" />
        </mxCell>
        <mxCell id="9bia1SHxIzR9saYs0n-D-44" value="&lt;b&gt;Answer&lt;/b&gt;" style="text;html=1;align=center;verticalAlign=middle;resizable=0;points=[];autosize=1;strokeColor=none;fillColor=none;" parent="1" vertex="1">
          <mxGeometry x="110" y="780" width="70" height="30" as="geometry" />
        </mxCell>
        <mxCell id="9bia1SHxIzR9saYs0n-D-46" value="Receive" style="text;html=1;align=center;verticalAlign=middle;resizable=0;points=[];autosize=1;strokeColor=none;fillColor=none;" parent="1" vertex="1">
          <mxGeometry x="-150" y="630" width="70" height="30" as="geometry" />
        </mxCell>
        <mxCell id="9bia1SHxIzR9saYs0n-D-47" style="edgeStyle=orthogonalEdgeStyle;rounded=0;orthogonalLoop=1;jettySize=auto;html=1;exitX=0.5;exitY=0;exitDx=0;exitDy=0;entryX=0.5;entryY=1;entryDx=0;entryDy=0;" parent="1" source="9bia1SHxIzR9saYs0n-D-28" target="9bia1SHxIzR9saYs0n-D-5" edge="1">
          <mxGeometry relative="1" as="geometry" />
        </mxCell>
        <mxCell id="9bia1SHxIzR9saYs0n-D-48" value="&lt;b&gt;Receive&lt;/b&gt;" style="text;html=1;align=center;verticalAlign=middle;resizable=0;points=[];autosize=1;strokeColor=none;fillColor=none;" parent="1" vertex="1">
          <mxGeometry x="115" y="510" width="70" height="30" as="geometry" />
        </mxCell>
        <mxCell id="w-1KXseZEpG_z7EYwiBP-1" value="1" style="text;html=1;align=center;verticalAlign=middle;resizable=0;points=[];autosize=1;strokeColor=none;fillColor=none;" parent="1" vertex="1">
          <mxGeometry x="20" y="830" width="30" height="30" as="geometry" />
        </mxCell>
        <mxCell id="w-1KXseZEpG_z7EYwiBP-2" value="1" style="text;html=1;align=center;verticalAlign=middle;resizable=0;points=[];autosize=1;strokeColor=none;fillColor=none;" parent="1" vertex="1">
          <mxGeometry x="170" y="660" width="30" height="30" as="geometry" />
        </mxCell>
        <mxCell id="w-1KXseZEpG_z7EYwiBP-3" value="1" style="text;html=1;align=center;verticalAlign=middle;resizable=0;points=[];autosize=1;strokeColor=none;fillColor=none;" parent="1" vertex="1">
          <mxGeometry x="-100" y="540" width="30" height="30" as="geometry" />
        </mxCell>
        <mxCell id="w-1KXseZEpG_z7EYwiBP-5" value="1" style="text;html=1;align=center;verticalAlign=middle;resizable=0;points=[];autosize=1;strokeColor=none;fillColor=none;" parent="1" vertex="1">
          <mxGeometry x="210" y="527" width="30" height="30" as="geometry" />
        </mxCell>
        <mxCell id="w-1KXseZEpG_z7EYwiBP-6" value="1" style="text;html=1;align=center;verticalAlign=middle;resizable=0;points=[];autosize=1;strokeColor=none;fillColor=none;" parent="1" vertex="1">
          <mxGeometry x="310" y="270" width="30" height="30" as="geometry" />
        </mxCell>
        <mxCell id="w-1KXseZEpG_z7EYwiBP-7" value="1" style="text;html=1;align=center;verticalAlign=middle;resizable=0;points=[];autosize=1;strokeColor=none;fillColor=none;" parent="1" vertex="1">
          <mxGeometry x="-50" y="420" width="30" height="30" as="geometry" />
        </mxCell>
        <mxCell id="w-1KXseZEpG_z7EYwiBP-8" value="1" style="text;html=1;align=center;verticalAlign=middle;resizable=0;points=[];autosize=1;strokeColor=none;fillColor=none;" parent="1" vertex="1">
          <mxGeometry x="50" y="260" width="30" height="30" as="geometry" />
        </mxCell>
        <mxCell id="w-1KXseZEpG_z7EYwiBP-9" value="1" style="text;html=1;align=center;verticalAlign=middle;resizable=0;points=[];autosize=1;strokeColor=none;fillColor=none;" parent="1" vertex="1">
          <mxGeometry x="210" y="480" width="30" height="30" as="geometry" />
        </mxCell>
        <mxCell id="w-1KXseZEpG_z7EYwiBP-10" value="N" style="text;html=1;align=center;verticalAlign=middle;resizable=0;points=[];autosize=1;strokeColor=none;fillColor=none;" parent="1" vertex="1">
          <mxGeometry x="470" y="365" width="30" height="30" as="geometry" />
        </mxCell>
        <mxCell id="w-1KXseZEpG_z7EYwiBP-11" value="1" style="text;html=1;align=center;verticalAlign=middle;resizable=0;points=[];autosize=1;strokeColor=none;fillColor=none;" parent="1" vertex="1">
          <mxGeometry x="200" y="180" width="30" height="30" as="geometry" />
        </mxCell>
        <mxCell id="w-1KXseZEpG_z7EYwiBP-13" value="1" style="text;html=1;align=center;verticalAlign=middle;resizable=0;points=[];autosize=1;strokeColor=none;fillColor=none;" parent="1" vertex="1">
          <mxGeometry x="200" y="220" width="30" height="30" as="geometry" />
        </mxCell>
        <mxCell id="Y9ItXvn1lvH6FB86PRbh-13" value="1" style="text;html=1;align=center;verticalAlign=middle;resizable=0;points=[];autosize=1;strokeColor=none;fillColor=none;" parent="1" vertex="1">
          <mxGeometry x="-60" y="710" width="30" height="30" as="geometry" />
        </mxCell>
      </root>
    </mxGraphModel>
  </diagram>
</mxfile>
